<?xml version="1.0" encoding="iso-8859-1"?>
<!-- Generator: Adobe Illustrator 19.0.0, SVG Export Plug-In . SVG Version: 6.00 Build 0)  -->
<svg version="1.1" id="Layer_1" xmlns="http://www.w3.org/2000/svg" xmlns:xlink="http://www.w3.org/1999/xlink" x="0px" y="0px"
	 viewBox="0 0 512 512" style="enable-background:new 0 0 512 512;" xml:space="preserve">
<polygon style="fill:#FDDF7F;" points="412.33,256 490.047,180.244 382.135,164.564 400.649,56.616 303.988,107.433 256,10.199 
	208.012,107.433 111.351,56.616 129.865,164.564 21.953,180.244 99.67,256 21.953,331.756 129.865,347.436 111.351,455.384 
	208.012,404.567 256,501.801 303.988,404.567 400.649,455.384 382.135,347.436 490.047,331.756 "/>
<g>
	<path style="fill:#00537B;" d="M256,512c-3.883,0-7.428-2.204-9.147-5.685l-43.357-87.852l-87.4,45.949
		c-3.435,1.806-7.6,1.505-10.741-0.776c-3.14-2.283-4.714-6.149-4.058-9.976l16.746-97.636l-97.557-14.176
		c-3.843-0.558-7.033-3.249-8.234-6.942c-1.199-3.692-0.199-7.745,2.58-10.455L85.057,256l-70.226-68.452
		c-2.78-2.71-3.78-6.763-2.58-10.455c1.2-3.692,4.392-6.383,8.234-6.942l97.557-14.176L101.297,58.34
		c-0.657-3.826,0.917-7.693,4.058-9.976s7.306-2.582,10.741-0.776l87.4,45.949l43.357-87.852C248.572,2.204,252.117,0,256,0
		s7.428,2.204,9.147,5.685l43.357,87.852l87.4-45.949c3.435-1.806,7.599-1.505,10.741,0.776c3.14,2.283,4.714,6.149,4.058,9.976
		l-16.746,97.636l97.557,14.176c3.843,0.558,7.033,3.249,8.234,6.942c1.199,3.692,0.199,7.745-2.58,10.455L426.943,256
		l70.226,68.452c2.78,2.71,3.78,6.763,2.58,10.455c-1.2,3.692-4.392,6.383-8.234,6.942l-97.557,14.176l16.746,97.636
		c0.657,3.826-0.917,7.693-4.058,9.976c-3.141,2.282-7.306,2.582-10.741,0.776l-87.4-45.949l-43.357,87.852
		C263.428,509.796,259.883,512,256,512z M208.012,394.368c1.061,0,2.123,0.165,3.152,0.499c2.615,0.85,4.778,2.72,5.995,5.186
		L256,478.755l38.842-78.703c1.217-2.466,3.379-4.336,5.995-5.186c2.614-0.849,5.462-0.608,7.897,0.673l78.37,41.201l-15.022-87.58
		c-0.464-2.711,0.186-5.494,1.802-7.719c1.617-2.224,4.062-3.702,6.785-4.098l87.462-12.708l-62.919-61.331
		c-1.969-1.919-3.08-4.553-3.08-7.304c0-2.751,1.111-5.384,3.08-7.304l62.919-61.331l-87.462-12.708
		c-2.722-0.396-5.168-1.873-6.785-4.098c-1.617-2.225-2.266-5.009-1.802-7.719l15.022-87.58l-78.37,41.201
		c-2.436,1.281-5.283,1.522-7.897,0.673c-2.615-0.85-4.778-2.72-5.995-5.186L256,33.245l-38.842,78.703
		c-1.217,2.466-3.379,4.336-5.995,5.186c-2.613,0.85-5.462,0.608-7.897-0.673l-78.37-41.201l15.022,87.58
		c0.464,2.711-0.186,5.494-1.802,7.719s-4.062,3.702-6.785,4.098L43.87,187.365l62.919,61.331c1.969,1.919,3.08,4.553,3.08,7.304
		c0,2.751-1.111,5.384-3.08,7.304L43.87,324.635l87.462,12.708c2.722,0.396,5.168,1.873,6.785,4.098
		c1.617,2.225,2.266,5.009,1.802,7.719l-15.022,87.58l78.37-41.201C204.744,394.761,206.375,394.368,208.012,394.368z"/>
	<path style="fill:#00537B;" d="M352.097,363.093c-4.876,0-9.188-3.508-10.041-8.477l-0.236-1.377
		c-0.953-5.551,2.777-10.824,8.329-11.776c5.56-0.956,10.824,2.777,11.777,8.329l0.236,1.377c0.953,5.551-2.777,10.824-8.329,11.776
		C353.249,363.045,352.668,363.093,352.097,363.093z"/>
	<path style="fill:#00537B;" d="M360.493,412.049c-4.876,0-9.188-3.508-10.041-8.477l-4.023-23.458
		c-0.953-5.551,2.777-10.824,8.329-11.776c5.563-0.956,10.823,2.777,11.777,8.329l4.023,23.458
		c0.953,5.551-2.777,10.824-8.329,11.776C361.645,412.001,361.065,412.049,360.493,412.049z"/>
</g>
<g>
</g>
<g>
</g>
<g>
</g>
<g>
</g>
<g>
</g>
<g>
</g>
<g>
</g>
<g>
</g>
<g>
</g>
<g>
</g>
<g>
</g>
<g>
</g>
<g>
</g>
<g>
</g>
<g>
</g>
</svg>
